<svg id="Capa_1" fill="#6ae97d" enable-background="new 0 0 512 512" height="512" viewBox="0 0 512 512" width="512" xmlns="http://www.w3.org/2000/svg"><path d="m483.808 227.436c0-49.614-36.844-90.784-84.61-97.579-7.066-72.783-68.591-129.857-143.197-129.857-74.603 0-136.124 57.075-143.196 129.856-47.768 6.795-84.612 47.965-84.612 97.579 0 37.132 20.643 69.528 51.052 86.331-.713 6.798-1.078 13.624-1.078 20.399 0 13.167 1.325 26.35 3.939 39.18 1.424 6.987 7.568 12.006 14.698 12.006h27.126c.785 2.021 1.616 4.023 2.493 6.006l-19.186 19.186c-5.043 5.042-5.839 12.938-1.902 18.885 7.23 10.926 15.614 21.183 24.918 30.487 9.314 9.313 19.572 17.697 30.49 24.919 5.943 3.932 13.838 3.137 18.881-1.905l19.185-19.185c1.983.877 3.986 1.709 6.009 2.494v27.125c0 7.13 5.019 13.274 12.005 14.698 12.827 2.613 26.009 3.939 39.18 3.939 13.17 0 26.352-1.325 39.18-3.939 6.988-1.424 12.007-7.568 12.007-14.698l-.001-27.125c2.022-.785 4.025-1.617 6.008-2.493l19.181 19.181c5.041 5.041 12.934 5.837 18.88 1.906 10.915-7.218 21.175-15.603 30.494-24.921 9.313-9.313 17.695-19.571 24.917-30.488 3.934-5.946 3.138-13.84-1.904-18.882l-19.182-19.182c.877-1.982 1.709-3.986 2.494-6.009h27.12c7.13 0 13.274-5.019 14.698-12.006 2.614-12.834 3.94-26.016 3.94-39.182-.002-6.778-.366-13.603-1.078-20.395 30.408-16.802 51.051-49.2 51.051-86.331zm-79.974 106.73c0 7.084-.453 14.172-1.35 21.185h-25.108c-6.63 0-12.474 4.353-14.372 10.705-2.194 7.344-5.152 14.468-8.793 21.175-3.168 5.839-2.12 13.065 2.577 17.762l17.772 17.773c-4.322 5.59-9.015 10.922-14.025 15.933-5.013 5.013-10.344 9.705-15.934 14.026l-17.773-17.773c-4.695-4.697-11.925-5.745-17.762-2.577-6.71 3.642-13.832 6.6-21.171 8.791-6.355 1.897-10.708 7.742-10.708 14.373l.001 25.113c-14.022 1.793-28.352 1.793-42.371 0v-25.113c0-6.631-4.354-12.476-10.708-14.373-7.336-2.19-14.459-5.148-21.173-8.791-5.839-3.17-13.064-2.119-17.761 2.577l-17.777 17.776c-5.59-4.322-10.921-9.015-15.932-14.025-5.008-5.008-9.701-10.341-14.026-15.935l17.775-17.776c4.697-4.696 5.745-11.923 2.577-17.761-3.643-6.713-6.6-13.835-8.79-21.17-1.897-6.354-7.742-10.708-14.373-10.708h-25.114c-.897-7.012-1.35-14.101-1.35-21.186 0-3.281.102-6.577.301-9.875 5.928 1.117 12.041 1.708 18.289 1.708h60.456c-.316 2.693-.487 5.415-.487 8.167 0 38.2 31.078 69.278 69.277 69.278 38.201 0 69.279-31.078 69.279-69.278 0-2.751-.171-5.474-.487-8.167h60.451c6.248 0 12.359-.591 18.288-1.708.198 3.296.301 6.592.302 9.874zm-109.416-8.167c.568 2.663.863 5.39.863 8.167 0 21.658-17.621 39.278-39.279 39.278-21.657 0-39.277-17.62-39.277-39.278 0-2.777.295-5.504.862-8.167zm90.827-30h-114.245v-79.788l19.852 19.851c2.929 2.929 6.768 4.394 10.606 4.394s7.677-1.465 10.607-4.394c5.858-5.857 5.858-15.355 0-21.213l-45.456-45.455c-5.857-5.857-15.355-5.857-21.213 0l-45.455 45.455c-5.858 5.857-5.858 15.355 0 21.213 5.857 5.857 15.355 5.857 21.213 0l19.846-19.847v79.784h-114.244c-37.806 0-68.563-30.758-68.563-68.563 0-37.751 30.67-68.474 68.4-68.563.242.007.525.008.765.005 8.193-.126 14.77-6.811 14.77-15.005-.001-62.79 51.083-113.873 113.873-113.873s113.873 51.083 113.873 113.882c0 3.999 1.597 7.833 4.436 10.649 2.811 2.788 6.608 4.351 10.564 4.351h.121c.146-.002.29-.005.442-.01 37.717.105 68.37 30.822 68.37 68.563.001 37.806-30.756 68.564-68.562 68.564z"/></svg>